<?xml version="1.0" standalone="no"?>
<!DOCTYPE svg PUBLIC "-//W3C//DTD SVG 20010904//EN"
 "http://www.w3.org/TR/2001/REC-SVG-20010904/DTD/svg10.dtd">
<svg version="1.0" xmlns="http://www.w3.org/2000/svg"
 width="64px" height="64px" viewBox="0 0 1280.000000 1028.000000"
 preserveAspectRatio="xMidYMid meet">
<metadata>
Created by potrace 1.15, written by Peter Selinger 2001-2017
</metadata>
<g transform="translate(0.000000,1028.000000) scale(0.100000,-0.100000)"
fill="#404543" stroke="none">
<path d="M11705 10265 c-185 -19 -356 -45 -380 -58 -17 -8 -2231 -1473 -4516
-2985 -284 -188 -520 -342 -525 -342 -5 0 -90 112 -189 247 -99 136 -197 264
-218 285 -136 132 -368 123 -520 -21 -72 -68 -95 -115 -160 -321 -125 -395
-175 -552 -180 -556 -2 -3 -47 18 -98 46 -475 259 -1022 416 -1530 438 -668
30 -1267 -117 -1803 -440 -718 -434 -1258 -1166 -1471 -1993 -120 -470 -144
-912 -75 -1384 161 -1091 842 -2114 1783 -2679 537 -323 1063 -480 1672 -499
806 -25 1588 240 2186 741 350 293 600 609 798 1011 294 595 408 1265 335
1975 -8 80 -17 152 -20 162 -6 20 -1 20 516 48 385 20 459 29 520 60 42 22
102 83 124 128 40 79 28 220 -28 331 -14 27 -127 199 -251 382 -124 183 -225
335 -225 338 0 3 156 102 346 220 l345 213 430 -77 c466 -84 464 -84 492 -28
8 15 29 98 47 183 17 85 63 308 101 495 39 187 74 358 78 380 6 37 9 40 36 37
17 -2 233 -41 482 -88 248 -46 459 -84 469 -84 19 0 503 311 529 340 11 12 52
189 122 522 58 276 109 506 112 510 4 4 148 -10 321 -32 173 -22 329 -40 345
-40 23 0 98 48 320 206 160 113 303 218 319 234 26 25 35 59 117 411 49 211
137 573 195 804 59 231 116 457 127 502 25 100 21 114 -58 176 -115 90 -284
162 -455 193 -118 21 -405 26 -565 9z m-9413 -6841 c304 -78 517 -371 495
-679 -22 -298 -201 -519 -483 -596 -109 -30 -288 -24 -386 13 -99 37 -173 85
-247 159 -240 241 -264 608 -57 877 157 204 422 293 678 226z"/>
</g>
</svg>
